#!OML:ASF E:\motion texture\Top Level 1\Subject 1\Session 1\male.ASF
:FULLY-SPECIFIED
:DEGREES
421
root -10.1541 17.9914 1.90771 373.372 -79.0282 -369.333
lowerback 26.2752 19.6725 6.40383
upperback 12.6796 38.3804 10.5403
thorax -174.138 131.864 -0.981677
lowerneck 28.2513 30.6357 14.6019
upperneck -53.0997 78.9586 -58.1781
head 272.347 109.246 138.36
rclavicle 4.49253e-014 -2.96189e-014
rhumerus 81.9256 3.52258 119.162
rradius 86.2254
rwrist -67.3253
rhand -12.8064 -66.2113
rfingers 7.12502
rthumb 13.2798 95.7683
lclavicle 4.49253e-014 -2.96189e-014
lhumerus 78.6587 4.71055 -94.6938
lradius 96.1985
lwrist 51.111
lhand -10.0375 58.6319
lfingers 7.12502
lthumb 15.9475 447.995
rfemur -25.5968 -6.26739 20.1464
rtibia 52.9955
rfoot -0.480153 -13.405
rtoes 9.78569
lfemur -13.6607 -8.69555 -20.9938
ltibia 21.7105
lfoot -8.13492 -5.6104
ltoes 4.90068
422
root -10.3087 17.9958 1.93123 372.323 -78.5805 -368.253
lowerback 26.2298 19.5262 6.32586
upperback 12.6592 38.2668 10.4785
thorax -174.118 131.989 -0.952743
lowerneck 28.2593 30.6824 14.5378
upperneck -53.581 79.0124 -58.6387
head 272.009 109.193 138.006
rclavicle 5.82439e-014 1.88845e-014
rhumerus 83.1221 2.93846 118.913
rradius 87.2352
rwrist -67.0416
rhand -12.6466 -65.6038
rfingers 7.12502
rthumb 13.4339 95.1507
lclavicle 5.82439e-014 1.88845e-014
lhumerus 77.3506 4.10026 -95.6496
lradius 95.4986
lwrist 50.7983
lhand -10.1172 58.8642
lfingers 7.12502
lthumb 15.8708 448.234
rfemur -26.3615 -6.33134 19.9693
rtibia 51.9319
rfoot -0.909753 -13.2912
rtoes 9.37218
lfemur -12.9523 -8.75969 -21.2474
ltibia 21.4317
lfoot -8.47472 -5.90022
ltoes 5.00039
423
root -10.4634 17.9992 1.95469 371.394 -78.1449 -367.286
lowerback 26.1786 19.3856 6.26238
upperback 12.6317 38.1482 10.417
thorax -174.103 132.092 -0.925675
lowerneck 28.2591 30.7229 14.475
upperneck -54.0302 79.0695 -59.0656
head 271.772 109.144 137.738
rclavicle 1.27819e-013 -1.68967e-014
rhumerus 84.3188 2.35616 118.634
rradius 88.2421
rwrist -66.7193
rhand -12.4816 -64.9532
rfingers 7.12502
rthumb 13.5929 94.4894
lclavicle 1.27819e-013 -1.68967e-014
lhumerus 76.1051 3.47352 -96.5911
lradius 94.7173
lwrist 50.4974
lhand -10.1888 59.0769
lfingers 7.12502
lthumb 15.8018 448.452
rfemur -27.0896 -6.37816 19.7873
rtibia 50.7597
rfoot -1.29948 -13.1704
rtoes 8.80904
lfemur -12.2478 -8.81719 -21.4872
ltibia 21.1489
lfoot -8.809 -6.17135
ltoes 5.10069
424
root -10.6182 18.0017 1.97808 370.567 -77.7208 -366.413
lowerback 26.1215 19.25 6.21366
upperback 12.5973 38.0244 10.3561
thorax -174.091 132.171 -0.900308
lowerneck 28.2507 30.7573 14.4149
upperneck -54.4365 79.1293 -59.448
head 271.639 109.098 137.56
rclavicle -6.91771e-014 1.66979e-014
rhumerus 85.5127 1.77994 118.328
rradius 89.2366
rwrist -66.3676
rhand -12.3122 -64.2657
rfingers 7.12502
rthumb 13.7562 93.7909
lclavicle -6.91771e-014 1.66979e-014
lhumerus 74.9253 2.83235 -97.5147
lradius 93.8594
lwrist 50.213
lhand -10.277 59.2847
lfingers 7.12502
lthumb 15.7168 448.666
rfemur -27.781 -6.40931 19.6005
rtibia 49.4923
rfoot -1.63656 -13.0454
rtoes 8.1314
lfemur -11.5483 -8.86894 -21.7141
ltibia 20.8656
lfoot -9.13827 -6.42432
ltoes 5.19731
425
root -10.7731 18.0033 2.00141 369.825 -77.3083 -365.622
lowerback 26.0575 19.1193 6.17742
upperback 12.556 37.8952 10.2948
thorax -174.083 132.229 -0.876064
lowerneck 28.2332 30.7847 14.3558
upperneck -54.8024 79.1926 -59.7879
head 271.603 109.052 137.461
rclavicle -6.2816e-014 -1.98785e-016
rhumerus 86.6992 1.21341 117.997
rradius 90.2115
rwrist -65.9972
rhand -12.1489 -63.5484
rfingers 7.12502
rthumb 13.9135 93.0629
lclavicle -6.2816e-014 -1.98785e-016
lhumerus 73.8123 2.17793 -98.4208
lradius 92.9308
lwrist 49.9464
lhand -10.3308 59.4633
lfingers 7.12502
lthumb 15.6651 448.849
rfemur -28.434 -6.42554 19.4088
rtibia 48.1424
rfoot -1.90204 -12.9217
rtoes 7.37314
lfemur -10.8534 -8.91732 -21.9293
ltibia 20.5839
lfoot -9.46292 -6.65912
ltoes 5.29725
426
root -10.9284 18.0038 2.02467 369.154 -76.907 -364.897
lowerback 25.9873 18.9931 6.15208
upperback 12.5087 37.7616 10.2333
thorax -174.078 132.265 -0.852366
lowerneck 28.207 30.8046 14.2987
upperneck -55.1138 79.2574 -60.0715
head 271.652 109.007 137.432
rclavicle -1.20464e-013 2.82274e-014
rhumerus 87.8752 0.66066 117.642
rradius 91.16
rwrist -65.6164
rhand -11.9874 -62.8136
rfingers 7.12502
rthumb 14.0692 92.3174
lclavicle -1.20464e-013 2.82274e-014
lhumerus 72.7692 1.51314 -99.3071
lradius 91.9353
lwrist 49.6901
lhand -10.3661 59.6278
lfingers 7.12502
lthumb 15.6311 449.016
rfemur -29.0489 -6.42849 19.2126
rtibia 46.7232
rfoot -2.07588 -12.8079
rtoes 6.56858
lfemur -10.1633 -8.96212 -22.1339
ltibia 20.306
lfoot -9.783 -6.8778
ltoes 5.39222
427
root -11.0842 18.0034 2.04785 368.545 -76.5163 -364.232
lowerback 25.9126 18.8708 6.14157
upperback 12.4556 37.6233 10.1734
thorax -174.076 132.276 -0.830292
lowerneck 28.1722 30.8176 14.2432
upperneck -55.3778 79.325 -60.3058
head 271.797 108.962 137.482
rclavicle 6.69904e-014 2.42517e-014
rhumerus 89.0359 0.124488 117.272
rradius 92.0768
rwrist -65.2341
rhand -11.8262 -62.0759
rfingers 7.12502
rthumb 14.2245 91.5689
lclavicle 6.69904e-014 2.42517e-014
lhumerus 71.7965 0.839425 -100.169
lradius 90.8796
lwrist 49.45
lhand -10.387 59.7811
lfingers 7.12502
lthumb 15.6109 449.171
rfemur -29.6238 -6.41934 19.013
rtibia 45.2487
rfoot -2.15614 -12.7047
rtoes 5.7428
lfemur -9.47654 -9.00339 -22.3282
ltibia 20.0332
lfoot -10.0991 -7.08191
ltoes 5.48165
428
root -11.2404 18.0019 2.07094 367.99 -76.136 -363.617
lowerback 25.8342 18.7522 6.14233
upperback 12.3981 37.482 10.1149
thorax -174.076 132.263 -0.808984
lowerneck 28.1308 30.8249 14.1912
upperneck -55.5919 79.3933 -60.4894
head 272.026 108.919 137.605
rclavicle 5.46658e-014 5.00937e-014
rhumerus 90.1785 -0.392765 116.887
rradius 92.9587
rwrist -64.8607
rhand -11.7015 -61.3259
rfingers 7.12502
rthumb 14.3446 90.8103
lclavicle 5.46658e-014 5.00937e-014
lhumerus 70.8957 0.160433 -101.008
lradius 89.7769
lwrist 49.2448
lhand -10.3685 59.8966
lfingers 7.12502
lthumb 15.6288 449.285
rfemur -30.1611 -6.40024 18.8115
rtibia 43.7367
rfoot -2.14513 -12.6157
rtoes 4.90619
lfemur -8.79704 -9.03992 -22.5123
ltibia 19.7718
lfoot -10.4131 -7.27491
ltoes 5.55793
429
root -11.3972 17.9994 2.09389 367.483 -75.7648 -363.049
lowerback 25.751 18.6369 6.15487
upperback 12.3355 37.3365 10.0574
thorax -174.079 132.229 -0.788574
lowerneck 28.0826 30.8265 14.143
upperneck -55.7483 79.462 -60.6146
head 272.338 108.879 137.798
rclavicle 7.51406e-014 4.25399e-014
rhumerus 91.2965 -0.88736 116.491
rradius 93.8027
rwrist -64.5007
rhand -11.5775 -60.5963
rfingers 7.12502
rthumb 14.4641 90.0722
lclavicle 7.51406e-014 4.25399e-014
lhumerus 70.067 -0.521356 -101.822
lradius 88.6322
lwrist 49.0739
lhand -10.3612 60.009
lfingers 7.12502
lthumb 15.6358 449.397
rfemur -30.6602 -6.37323 18.6106
rtibia 42.2019
rfoot -2.04371 -12.5438
rtoes 4.06402
lfemur -8.12492 -9.06997 -22.6854
ltibia 19.5238
lfoot -10.7235 -7.46028
ltoes 5.62015
430
root -11.5547 17.9958 2.11669 367.02 -75.4026 -362.522
lowerback 25.6657 18.5247 6.18527
upperback 12.2681 37.1866 10.0034
thorax -174.085 132.169 -0.771048
lowerneck 28.0305 30.8267 14.1004
upperneck -55.8694 79.5324 -60.705
head 272.757 108.848 138.091
rclavicle -1.63003e-014 -1.03368e-014
rhumerus 92.3852 -1.35965 116.094
rradius 94.607
rwrist -64.1536
rhand -11.4494 -59.8939
rfingers 7.12502
rthumb 14.5875 -89.3609
lclavicle -1.63003e-014 -1.03368e-014
lhumerus 69.3119 -1.20415 -102.609
lradius 87.4554
lwrist 48.9442
lhand -10.3505 60.0975
lfingers 7.12502
lthumb 15.6461 449.485
rfemur -31.1211 -6.33894 18.4123
rtibia 40.6596
rfoot -1.86051 -12.4893
rtoes 3.28285
lfemur -7.46092 -9.09259 -22.8465
ltibia 19.2918
lfoot -11.0298 -7.6407
ltoes 5.6664
431
root -11.713 17.9913 2.13927 366.592 -75.0481 -362.033
lowerback 25.576 18.4151 6.22218
upperback 12.1973 37.0343 9.94975
thorax -174.092 132.089 -0.753018
lowerneck 27.9707 30.8189 14.0596
upperneck -55.9241 79.6021 -60.7275
head 273.23 108.815 138.423
rclavicle 7.05686e-014 1.27222e-014
rhumerus 93.4389 -1.80428 115.688
rradius 95.3699
rwrist -63.8219
rhand -11.3209 -59.2235
rfingers 7.12502
rthumb 14.7114 -88.6815
lclavicle 7.05686e-014 1.27222e-014
lhumerus 68.6263 -1.88281 -103.376
lradius 86.2546
lwrist 48.8488
lhand -10.3287 60.1571
lfingers 7.12502
lthumb 15.6671 449.543
rfemur -31.5413 -6.30078 18.2192
rtibia 39.1239
rfoot -1.60724 -12.4453
rtoes 2.60327
lfemur -6.80402 -9.10621 -22.9957
ltibia 19.0783
lfoot -11.3307 -7.82041
ltoes 5.69454
432
root -11.8722 17.9858 2.16165 366.196 -74.7012 -361.576
lowerback 25.4846 18.3079 6.27241
upperback 12.123 36.8793 9.89915
thorax -174.102 131.985 -0.736591
lowerneck 27.906 30.8075 14.0234
upperneck -55.9282 79.6719 -60.6994
head 273.786 108.789 138.831
rclavicle -3.35946e-014 -1.98785e-014
rhumerus 94.4516 -2.22247 115.288
rradius 96.0947
rwrist -63.5154
rhand -11.208 -58.5884
rfingers 7.12502
rthumb 14.8201 -88.0384
lclavicle -3.35946e-014 -1.98785e-014
lhumerus 68.0122 -2.55486 -104.118
lradius 85.0379
lwrist 48.7859
lhand -10.2631 60.1572
lfingers 7.12502
lthumb 15.7303 449.538
rfemur -31.922 -6.26008 18.0333
rtibia 37.6067
rfoot -1.30048 -12.4
rtoes 1.99671
lfemur -6.15662 -9.1113 -23.1325
ltibia 18.8866
lfoot -11.6236 -8.00193
ltoes 5.70671
433
root -12.0325 17.9794 2.18387 365.828 -74.3623 -361.149
lowerback 25.3919 18.2032 6.33793
upperback 12.0453 36.7213 9.85234
thorax -174.114 131.856 -0.722333
lowerneck 27.8375 30.7948 13.9933
upperneck -55.8865 79.7422 -60.6262
head 274.442 108.772 139.329
rclavicle -3.26007e-014 3.97569e-015
rhumerus 95.4166 -2.61186 114.901
rradius 96.782
rwrist -63.232
rhand -11.1103 -57.9864
rfingers 7.12502
rthumb 14.9142 -87.4295
lclavicle -3.26007e-014 3.97569e-015
lhumerus 67.4662 -3.21772 -104.834
lradius 83.816
lwrist 48.7618
lhand -10.1954 60.1191
lfingers 7.12502
lthumb 15.7954 449.495
rfemur -32.2612 -6.21559 17.8558
rtibia 36.119
rfoot -0.955677 -12.3645
rtoes 1.47019
lfemur -5.51798 -9.10633 -23.257
ltibia 18.7199
lfoot -11.9084 -8.18727
ltoes 5.69842
